<svg height="48pt" viewBox="0 0 48 48" width="48pt" xmlns="http://www.w3.org/2000/svg" xmlns:xlink="http://www.w3.org/1999/xlink"><linearGradient id="a" gradientTransform="matrix(46.864 0 0 47.058 .532 .524)" gradientUnits="userSpaceOnUse" x1="0" x2="1" y1=".5" y2=".5"><stop offset="0" stop-color="#c6db23"/><stop offset=".3529861571" stop-color="#0bb3f5"/><stop offset=".675" stop-color="#ea4246"/><stop offset="1" stop-color="#c6db23"/></linearGradient><path d="m43.135 26.652c.16-1.168 1.24-1.988 2.41-1.83 1.17.157 1.99 1.236 1.83 2.409-.797 5.877-3.792 11.245-8.383 15.015-4.59 3.76-10.438 5.654-16.363 5.293-6.224-.38-12.051-3.221-16.192-7.888-4.129-4.676-6.241-10.806-5.862-17.029.379-6.224 3.22-12.051 7.887-16.192 4.677-4.129 10.806-6.242 17.03-5.862 1.178.072 2.077 1.087 2.005 2.265-.072 1.178-1.087 2.077-2.265 2.005-5.092-.311-10.105 1.42-13.933 4.797-3.817 3.389-6.144 8.155-6.454 13.247s1.42 10.105 4.798 13.932c3.389 3.818 8.154 6.144 13.246 6.455 4.847.295 9.634-1.246 13.39-4.327 3.756-3.082 6.199-7.477 6.856-12.29zm-9.102-19.07c-1.01-.612-1.333-1.928-.721-2.937.611-1.01 1.927-1.333 2.937-.721 4.298 2.608 7.659 6.531 9.572 11.18.454 1.092-.064 2.345-1.156 2.796-1.092.451-2.347-.07-2.801-1.162-1.567-3.814-4.308-7.013-7.831-9.156zm-17.704 26.417c.326.009.693-.029 1.059-.104 1.084-.225 2.005-.695 2.712-1.527.43-.507.792-1.057 1.104-1.636.366-.681.673-1.391.94-2.11.326-.869.603-1.757.816-2.655.119-.503-.014-.819-.598-.992-.742-.221-1.49-.418-2.252-.578-1.262-.263-2.533-.432-3.83-.391-.367.014-.733.052-1.094.113-1.05.174-1.94.635-2.667 1.363-1.243 1.241-1.737 2.721-1.431 4.409.441 2.411 2.688 4.127 5.241 4.108zm2.673-18.667c-.014.371.051.777.159 1.184.207.773.549 1.481.952 2.15.918 1.521 2.076 2.824 3.331 4.034.103.099.226.183.357.247.131.069.262.069.398.01.131-.059.248-.144.347-.253.436-.456.867-.912 1.279-1.383.581-.669 1.134-1.357 1.636-2.096.455-.669.862-1.372 1.162-2.135.299-.759.445-1.541.346-2.364-.164-1.357-.712-2.507-1.691-3.409-1.158-1.064-2.508-1.491-4.026-1.253-2.469.387-4.26 2.686-4.25 5.267zm12.669 18.667c-.326.009-.693-.029-1.059-.104-1.084-.225-2.005-.695-2.712-1.527-.43-.507-.792-1.057-1.104-1.636-.366-.681-.673-1.391-.94-2.11-.326-.869-.603-1.757-.816-2.655-.119-.503.014-.819.598-.992.742-.221 1.49-.418 2.252-.578 1.262-.263 2.533-.432 3.83-.391.367.014.733.052 1.094.113 1.05.174 1.94.635 2.667 1.363 1.243 1.241 1.737 2.721 1.431 4.409-.441 2.411-2.688 4.127-5.241 4.108z" fill="url(#a)" fill-rule="evenodd"/></svg>