<svg height="120" preserveAspectRatio="xMidYMid" viewBox="0 0 512 120" width="512" xmlns="http://www.w3.org/2000/svg"><path d="m0 118.067201h20.0767036v-52.2335729c0-10.3016672 6.7726023-17.7864465 16.4481022-17.7864465 9.3526806 0 15.1580631 5.8752468 15.1580631 15.3719417v54.6462237h19.5117903v-52.7156912c0-10.2211082 6.611399-17.3035043 16.2866925-17.3035043 9.8364968 0 15.3192663 5.9555998 15.3192663 16.418385v53.6016345h20.076312v-58.5093487c0-17.0620332-11.046038-28.4099377-27.8978708-28.4099377-12.3360767 0-22.4941545 6.599454-26.6078312 17.1425922h-.483775c-3.144393-10.9455213-11.7715556-17.1425922-23.864692-17.1425922-11.6103523 0-20.6406262 6.519101-24.3497467 16.418385h-.4031321v-14.8086465h-19.2698822zm166.822061-13.762285c-8.707867 0-14.512837-4.4265444-14.512837-11.4285875 0-6.7603661 5.563268-11.1064334 15.238561-11.7502876l19.753699-1.2072318v6.519101c0 10.3016672-9.110979 17.8670059-20.479423 17.8670059zm-6.047084 15.130553c10.965332 0 21.68917-5.714129 26.607831-14.969559h.403132v13.601497h19.350587v-58.7524679c0-17.1425922-13.787319-28.3295846-34.992053-28.3295846-21.769669 0-35.394546 11.4284635-36.282093 27.3632883h18.624863c1.290039-7.0823962 7.337123-11.6699346 16.851213-11.6699346 9.917202 0 15.964286 5.1508335 15.964286 14.0842333v6.1167179l-22.576717 1.2877084c-20.801623 1.2877083-32.492474 10.3822261-32.492474 25.5131088 0 15.3719414 12.013464 25.7549924 28.541858 25.7549924zm134.490192-56.2574047c-1.370662-17.9473585-15.319266-32.1927098-37.894126-32.1927098-24.832737 0-40.959258 17.1425922-40.959258 44.4249094 0 27.6867611 16.125489 44.3445561 41.120255 44.3445561 21.447675 0 36.201594-12.55526 37.813627-31.6302385h-18.947475c-1.854437 9.657813-8.46596 15.4525005-18.624863 15.4525005-12.739188 0-20.96262-10.3016669-20.96262-28.1688784 0-17.5449754 8.143346-28.1688787 20.801623-28.1688787 10.723425 0 17.092916 6.8409251 18.705568 15.9354429h18.947475zm62.006505-63.1780643c-33.94351 0-55.230188 23.0983981-55.230188 60.0401765s21.284614 59.9598235 55.230188 59.9598235c33.863011 0 55.149689-23.0180451 55.149689-59.9598235s-21.284614-60.0401765-55.149689-60.0401765zm0 17.7060934c20.721125 0 33.94351 16.4183851 33.94351 42.333671 0 25.8345209-13.222798 42.2533176-33.94351 42.2533176-20.801623 0-33.94351-16.4183846-33.94351-42.2533176 0-25.9148739 13.1423-42.333671 33.94351-42.333671zm63.618538 67.6860739c.886907 21.4089247 18.463659 34.6074207 45.231868 34.6074207 28.139366 0 45.87792-13.842968 45.87792-35.8951291 0-17.3035043-9.997907-27.0418763-33.621516-32.4337689l-13.384208-3.0583589c-14.271135-3.380183-20.15681-7.8871624-20.15681-15.6134128 0-9.6578129 8.869071-16.0963549 22.011164-16.0963549 13.303503 0 22.413656 6.519101 23.381702 17.3840633h19.834403c-.483775-20.4424222-17.415528-34.2860086-43.054282-34.2860086-25.317792 0-43.297842 13.9233213-43.297842 34.5270676 0 16.5792971 10.15911 26.8811703 31.604927 31.7909449l15.077358 3.5413011c14.674247 3.460742 20.640626 8.2895455 20.640626 16.6596501 0 9.6578129-9.755998 16.5792972-23.784193 16.5792972-14.190431 0-24.913236-7.0018373-26.203275-17.7060936h-20.15681z"/></svg>